<?xml version="1.0" encoding="UTF-8" standalone="no"?>
<svg
   version="1.1"
   viewBox="0 0 1024 768"
   fill="none"
   stroke="none"
   stroke-linecap="square"
   stroke-miterlimit="10"
   id="svg47"
   sodipodi:docname="1.svg"
   width="1024"
   height="768"
   inkscape:version="1.3 (0e150ed, 2023-07-21)"
   xmlns:inkscape="http://www.inkscape.org/namespaces/inkscape"
   xmlns:sodipodi="http://sodipodi.sourceforge.net/DTD/sodipodi-0.dtd"
   xmlns="http://www.w3.org/2000/svg"
   xmlns:svg="http://www.w3.org/2000/svg">
  <defs
     id="defs47" />
  <sodipodi:namedview
     id="namedview47"
     pagecolor="#ffffff"
     bordercolor="#000000"
     borderopacity="0.25"
     inkscape:showpageshadow="2"
     inkscape:pageopacity="0.0"
     inkscape:pagecheckerboard="0"
     inkscape:deskcolor="#d1d1d1"
     inkscape:zoom="0.59731188"
     inkscape:cx="426.91265"
     inkscape:cy="506.4356"
     inkscape:window-width="1920"
     inkscape:window-height="958"
     inkscape:window-x="0"
     inkscape:window-y="25"
     inkscape:window-maximized="1"
     inkscape:current-layer="svg47" />
  <clipPath
     id="p.0">
    <path
       d="M 0,0 H 1024 V 768 H 0 Z"
       clip-rule="nonzero"
       id="path1" />
  </clipPath>
  <g
     clip-path="url(#p.0)"
     id="g47"
     transform="matrix(1.2851638,0,0,1.2851638,5.7159644,73.866471)">
    <path
       fill="#000000"
       fill-opacity="0"
       d="M 0,0 H 1024 V 768 H 0 Z"
       fill-rule="evenodd"
       id="path2" />
    <path
       fill="#6fa8dc"
       d="m 189.02625,297.31235 h 127.1181 v 127.1181 h -127.1181 z"
       fill-rule="evenodd"
       id="path3" />
    <path
       stroke="#000000"
       stroke-width="3"
       stroke-linejoin="round"
       stroke-linecap="butt"
       d="m 189.02625,297.31235 h 127.1181 v 127.1181 h -127.1181 z"
       fill-rule="evenodd"
       id="path4" />
    <path
       fill="#6fa8dc"
       d="m 411.0656,297.31235 h 127.1181 v 127.1181 H 411.0656 Z"
       fill-rule="evenodd"
       id="path5" />
    <path
       stroke="#000000"
       stroke-width="3"
       stroke-linejoin="round"
       stroke-linecap="butt"
       d="m 411.0656,297.31235 h 127.1181 v 127.1181 H 411.0656 Z"
       fill-rule="evenodd"
       id="path6" />
    <path
       fill="#000000"
       fill-opacity="0"
       d="m 316.14435,360.8714 h 94.92914"
       fill-rule="evenodd"
       id="path7" />
    <path
       stroke="#000000"
       stroke-width="3"
       stroke-linejoin="round"
       stroke-linecap="butt"
       stroke-dasharray="3, 9"
       d="m 316.14435,360.8714 h 94.92914"
       fill-rule="evenodd"
       id="path8" />
    <path
       fill="#cfe2f3"
       d="m 633.105,297.31235 h 127.1181 v 127.1181 H 633.105 Z"
       fill-rule="evenodd"
       id="path9" />
    <path
       stroke="#000000"
       stroke-width="3"
       stroke-linejoin="round"
       stroke-linecap="butt"
       stroke-dasharray="12, 9"
       d="m 633.105,297.31235 h 127.1181 v 127.1181 H 633.105 Z"
       fill-rule="evenodd"
       id="path10" />
    <path
       fill="#000000"
       fill-opacity="0"
       d="m 538.17584,360.8714 h 94.92914"
       fill-rule="evenodd"
       id="path11" />
    <path
       stroke="#000000"
       stroke-width="3"
       stroke-linejoin="round"
       stroke-linecap="butt"
       stroke-dasharray="3, 9"
       d="m 538.17584,360.8714 h 94.92914"
       fill-rule="evenodd"
       id="path12" />
    <path
       fill="#e06666"
       d="m 157.38846,42.052494 h 127.1181 V 169.17061 h -127.1181 z"
       fill-rule="evenodd"
       id="path13" />
    <path
       stroke="#000000"
       stroke-width="3"
       stroke-linejoin="round"
       stroke-linecap="butt"
       d="m 157.38846,42.052494 h 127.1181 V 169.17061 h -127.1181 z"
       fill-rule="evenodd"
       id="path14" />
    <path
       fill="#f4cccc"
       d="m 379.42783,42.052494 h 127.1181 V 169.17061 h -127.1181 z"
       fill-rule="evenodd"
       id="path15" />
    <path
       stroke="#000000"
       stroke-width="3"
       stroke-linejoin="round"
       stroke-linecap="butt"
       d="m 379.42783,42.052494 h 127.1181 V 169.17061 h -127.1181 z"
       fill-rule="evenodd"
       id="path16" />
    <path
       fill="#000000"
       fill-opacity="0"
       d="M 284.50656,105.61155 H 379.4357"
       fill-rule="evenodd"
       id="path17" />
    <path
       stroke="#000000"
       stroke-width="3"
       stroke-linejoin="round"
       stroke-linecap="butt"
       stroke-dasharray="3, 9"
       d="M 284.50656,105.61155 H 379.4357"
       fill-rule="evenodd"
       id="path18" />
    <path
       fill="#f4cccc"
       d="M 601.47504,42.052494 H 728.5932 V 169.17061 H 601.47504 Z"
       fill-rule="evenodd"
       id="path19" />
    <path
       stroke="#000000"
       stroke-width="3"
       stroke-linejoin="round"
       stroke-linecap="butt"
       d="M 601.47504,42.052494 H 728.5932 V 169.17061 H 601.47504 Z"
       fill-rule="evenodd"
       id="path20" />
    <path
       fill="#000000"
       fill-opacity="0"
       d="m 506.54593,105.61155 h 94.92911"
       fill-rule="evenodd"
       id="path21" />
    <path
       stroke="#000000"
       stroke-width="3"
       stroke-linejoin="round"
       stroke-linecap="butt"
       stroke-dasharray="3, 9"
       d="m 506.54593,105.61155 h 94.92911"
       fill-rule="evenodd"
       id="path22" />
    <path
       fill="#000000"
       fill-opacity="0"
       d="m 220.66405,333.40683 h 63.84251 v 54.92914 h -63.84251 z"
       fill-rule="evenodd"
       id="path23" />
    <path
       fill="#000000"
       d="m 252.61037,357.70746 5.00002,-7.98437 h 3.23437 l -6.57814,10.32812 6.73439,10.51563 h -3.26562 l -5.12502,-8.14063 -5.15625,8.14063 h -3.25 l 6.76562,-10.51563 -6.60937,-10.32812 h 3.23437 z"
       fill-rule="nonzero"
       id="path24" />
    <path
       fill="#000000"
       fill-opacity="0"
       d="m 442.7034,333.40683 h 63.84253 v 54.92914 H 442.7034 Z"
       fill-rule="evenodd"
       id="path25" />
    <path
       fill="#000000"
       d="m 474.59888,360.19183 5.4375,-10.46875 h 3.125 l -7.1875,13.0625 v 7.78125 h -2.75 v -7.78125 l -7.1875,-13.0625 h 3.14062 z"
       fill-rule="nonzero"
       id="path26" />
    <path
       fill="#000000"
       fill-opacity="0"
       d="m 189.02625,78.14698 h 63.84251 v 54.92913 h -63.84251 z"
       fill-rule="evenodd"
       id="path27" />
    <path
       fill="#000000"
       d="m 225.319,109.86948 h -8.73438 l -1.96875,5.4375 h -2.82812 l 7.95312,-20.843746 h 2.40625 l 7.98438,20.843746 h -2.82813 z m -7.90625,-2.26562 h 7.09375 l -3.5625,-9.750001 z"
       fill-rule="nonzero"
       id="path28" />
    <path
       fill="#000000"
       fill-opacity="0"
       d="m 411.06955,78.14698 h 63.84253 v 54.92913 h -63.84253 z"
       fill-rule="evenodd"
       id="path29" />
    <path
       fill="#000000"
       d="M 436.28345,115.30698 V 94.463234 h 6.8125 q 3.39063,0 5.09375,1.40625 1.71875,1.390625 1.71875,4.140626 0,1.46875 -0.82812,2.59375 -0.82813,1.125 -2.26563,1.73437 1.70313,0.46875 2.67188,1.79688 0.98437,1.32812 0.98437,3.15625 0,2.8125 -1.82812,4.42187 -1.8125,1.59375 -5.125,1.59375 z m 2.75,-9.75 v 7.5 h 4.53125 q 1.92188,0 3.03125,-0.98437 1.10938,-1 1.10938,-2.75 0,-3.76563 -4.09375,-3.76563 z m 0,-2.20312 h 4.15625 q 1.79688,0 2.875,-0.90625 1.09375,-0.90625 1.09375,-2.453126 0,-1.71875 -1.01562,-2.5 -1,-0.78125 -3.04688,-0.78125 h -4.0625 z"
       fill-rule="nonzero"
       id="path30" />
    <path
       fill="#000000"
       fill-opacity="0"
       d="m 633.1076,78.14698 h 63.84253 v 54.92913 H 633.1076 Z"
       fill-rule="evenodd"
       id="path31" />
    <path
       fill="#000000"
       d="m 673.2343,108.69761 q -0.375,3.29687 -2.4375,5.09375 -2.04688,1.79687 -5.45313,1.79687 -3.70312,0 -5.9375,-2.64062 -2.21875,-2.65625 -2.21875,-7.09375 v -2 q 0,-2.90625 1.03125,-5.109375 1.04688,-2.21875 2.95313,-3.390625 1.90625,-1.1875 4.40625,-1.1875 3.32812,0 5.32812,1.859375 2,1.859375 2.32813,5.124995 h -2.75 q -0.35938,-2.48437 -1.5625,-3.593745 -1.1875,-1.125 -3.34375,-1.125 -2.64063,0 -4.14063,1.953125 -1.48437,1.9375 -1.48437,5.53125 v 2.03125 q 0,3.39062 1.40625,5.39062 1.42187,2 3.98437,2 2.28125,0 3.5,-1.03125 1.23438,-1.03125 1.64063,-3.60937 z"
       fill-rule="nonzero"
       id="path32" />
    <path
       fill="#000000"
       fill-opacity="0"
       d="m 664.7349,333.40683 h 63.84253 v 54.92914 H 664.7349 Z"
       fill-rule="evenodd"
       id="path33" />
    <path
       fill="#000000"
       d="m 692.3622,368.31683 h 11.92181 v 2.25 H 689.1122 v -2.0625 l 11.42181,-16.53125 H 689.2997 v -2.25 h 14.53119 v 2.01562 z"
       fill-rule="nonzero"
       id="path34" />
    <path
       fill="#000000"
       fill-opacity="0"
       d="m 0,340.4462 h 170.20473 v 40.8504 H 0 Z"
       fill-rule="evenodd"
       id="path35" />
    <path
       fill="#000000"
       d="m 15.609375,364.03433 q -2.71875,-0.79688 -3.96875,-1.9375 -1.25,-1.14063 -1.25,-2.82813 0,-1.90625 1.515625,-3.14062 1.53125,-1.25 3.96875,-1.25 1.65625,0 2.953125,0.64062 1.296875,0.64063 2.015625,1.78125 0.71875,1.125 0.71875,2.45313 h -2.140625 q 0,-1.45313 -0.9375,-2.28125 -0.921875,-0.84375 -2.609375,-0.84375 -1.578125,0 -2.453125,0.6875 -0.875,0.6875 -0.875,1.92187 0,0.98438 0.828125,1.67188 0.828125,0.67187 2.828125,1.23437 2.015625,0.5625 3.15625,1.25 1.140625,0.67188 1.6875,1.57813 0.546875,0.90625 0.546875,2.14062 0,1.95313 -1.53125,3.14063 -1.53125,1.17187 -4.078125,1.17187 -1.65625,0 -3.109375,-0.625 -1.4375,-0.64062 -2.21875,-1.75 -0.765625,-1.10937 -0.765625,-2.51562 h 2.125 q 0,1.46875 1.078125,2.3125 1.078125,0.84375 2.890625,0.84375 1.671875,0 2.5625,-0.6875 0.90625,-0.6875 0.90625,-1.85938 0,-1.1875 -0.828125,-1.82812 -0.828125,-0.65625 -3.015625,-1.28125 z m 15.769211,5.98437 q -1.1875,1.40625 -3.5,1.40625 -1.921875,0 -2.921875,-1.10937 -1,-1.10938 -1.015625,-3.29688 v -7.78125 h 2.046875 v 7.73438 q 0,2.71875 2.21875,2.71875 2.34375,0 3.125,-1.75 v -8.70313 h 2.046875 v 11.96875 h -1.953125 z m 15.2397,-4.67187 q 0,2.75 -1.265625,4.42187 -1.265625,1.65625 -3.390625,1.65625 -2.265625,0 -3.5,-1.60937 l -0.109375,1.39062 h -1.875 v -17 h 2.046875 v 6.34375 q 1.234375,-1.53125 3.40625,-1.53125 2.1875,0 3.4375,1.65625 1.25,1.64063 1.25,4.5 z m -2.046875,-0.21875 q 0,-2.09375 -0.8125,-3.23438 -0.8125,-1.14062 -2.328125,-1.14062 -2.015625,0 -2.90625,1.875 v 5.1875 q 0.9375,1.875 2.9375,1.875 1.46875,0 2.28125,-1.14063 0.828125,-1.14062 0.828125,-3.42187 z m 6.554703,-5.89063 0.0625,1.5 q 1.375,-1.71875 3.59375,-1.71875 3.796875,0 3.828125,4.28125 v 7.90625 h -2.046875 v -7.92187 q -0.01563,-1.29688 -0.59375,-1.90625 -0.578125,-0.625 -1.8125,-0.625 -1,0 -1.75,0.53125 -0.75,0.53125 -1.171875,1.39062 v 8.53125 h -2.046875 v -11.96875 z m 15.532013,12.1875 q -2.4375,0 -3.96875,-1.59375 -1.515625,-1.59375 -1.515625,-4.28125 v -0.375 q 0,-1.78125 0.671875,-3.17187 0.6875,-1.40625 1.90625,-2.1875 1.21875,-0.79688 2.65625,-0.79688 2.328125,0 3.625,1.54688 1.296875,1.53125 1.296875,4.39062 v 0.84375 h -8.109375 q 0.04687,1.78125 1.03125,2.875 0.984375,1.07813 2.515625,1.07813 1.078125,0 1.828125,-0.4375 0.765625,-0.4375 1.328125,-1.17188 l 1.25,0.96875 q -1.5,2.3125 -4.515625,2.3125 z m -0.25,-10.73437 q -1.25,0 -2.09375,0.90625 -0.828125,0.90625 -1.03125,2.53125 h 6 v -0.15625 q -0.09375,-1.5625 -0.84375,-2.42188 -0.75,-0.85937 -2.03125,-0.85937 z m 10.065445,-4.35938 v 2.90625 h 2.234375 v 1.57813 h -2.234375 v 7.42187 q 0,0.71875 0.296875,1.07813 0.296875,0.35937 1.015625,0.35937 0.359375,0 0.96875,-0.125 v 1.65625 q -0.796875,0.21875 -1.5625,0.21875 -1.375,0 -2.078125,-0.82812 -0.6875,-0.82813 -0.6875,-2.35938 v -7.42187 h -2.1875 v -1.57813 h 2.1875 v -2.90625 z m 22.400269,9.76563 q -0.296875,2.54687 -1.890625,3.9375 -1.578125,1.39062 -4.21875,1.39062 -2.859375,0 -4.578125,-2.04687 -1.71875,-2.04688 -1.71875,-5.46875 v -1.54688 q 0,-2.25 0.796875,-3.95312 0.8125,-1.70313 2.28125,-2.60938 1.46875,-0.92187 3.40625,-0.92187 2.5625,0 4.109375,1.4375 1.5625,1.42187 1.8125,3.95312 h -2.140625 q -0.265625,-1.92187 -1.203125,-2.78125 -0.921875,-0.85937 -2.578125,-0.85937 -2.03125,0 -3.1875,1.5 -1.15625,1.5 -1.15625,4.28125 v 1.5625 q 0,2.625 1.09375,4.17187 1.09375,1.54688 3.0625,1.54688 1.765625,0 2.703125,-0.79688 0.953125,-0.8125 1.265625,-2.79687 z m 4.621479,-5.40625 q 1.35937,-1.67188 3.54687,-1.67188 3.79688,0 3.82813,4.28125 v 7.90625 h -2.04688 v -7.92187 q -0.0156,-1.29688 -0.59375,-1.90625 -0.57812,-0.625 -1.8125,-0.625 -1,0 -1.75,0.53125 -0.75,0.53125 -1.17187,1.39062 v 8.53125 h -2.04688 v -17 h 2.04688 z m 17.82238,10.51562 q -0.17187,-0.35937 -0.28125,-1.26562 -1.4375,1.48437 -3.40625,1.48437 -1.78125,0 -2.92187,-1 -1.125,-1 -1.125,-2.53125 0,-1.875 1.42187,-2.90625 1.42188,-1.03125 4,-1.03125 h 2 v -0.95312 q 0,-1.0625 -0.65625,-1.70313 -0.64062,-0.64062 -1.89062,-0.64062 -1.09375,0 -1.84375,0.5625 -0.73438,0.54687 -0.73438,1.32812 h -2.04687 q 0,-0.89062 0.625,-1.71875 0.64062,-0.84375 1.73437,-1.32812 1.09375,-0.48438 2.39063,-0.48438 2.07812,0 3.25,1.03125 1.17187,1.03125 1.21875,2.84375 v 5.51563 q 0,1.64062 0.40625,2.625 v 0.17187 z m -3.39062,-1.5625 q 0.95312,0 1.8125,-0.5 0.875,-0.5 1.26562,-1.29687 v -2.45313 h -1.60937 q -3.76563,0 -3.76563,2.20313 0,0.96875 0.64063,1.51562 0.64062,0.53125 1.65625,0.53125 z m 10.54251,1.5625 h -2.04688 v -11.96875 h 2.04688 z m -2.20313,-15.14062 q 0,-0.5 0.29688,-0.84375 0.3125,-0.34375 0.90625,-0.34375 0.59375,0 0.90625,0.34375 0.3125,0.34375 0.3125,0.84375 0,0.5 -0.3125,0.82812 -0.3125,0.32813 -0.90625,0.32813 -0.59375,0 -0.90625,-0.32813 -0.29688,-0.32812 -0.29688,-0.82812 z m 7.42,3.17187 0.0625,1.5 q 1.375,-1.71875 3.59375,-1.71875 3.79688,0 3.82813,4.28125 v 7.90625 h -2.04688 v -7.92187 q -0.0156,-1.29688 -0.59375,-1.90625 -0.57812,-0.625 -1.8125,-0.625 -1,0 -1.75,0.53125 -0.75,0.53125 -1.17187,1.39062 v 8.53125 h -2.04688 v -11.96875 z"
       fill-rule="nonzero"
       id="path36" />
    <path
       fill="#000000"
       fill-opacity="0"
       d="M 20.475065,85.18635 H 122.36482 v 40.85039 H 20.475065 Z"
       fill-rule="evenodd"
       id="path37" />
    <path
       fill="#000000"
       d="m 33.475067,109.63385 v 6.3125 H 31.350065 V 99.836975 h 5.937502 q 2.640625,0 4.140625,1.359375 1.5,1.34375 1.5,3.5625 0,2.34375 -1.46875,3.60937 -1.46875,1.26563 -4.203125,1.26563 z m 0,-1.73438 h 3.8125 q 1.703125,0 2.609375,-0.79687 0.90625,-0.79688 0.90625,-2.3125 0,-1.4375 -0.90625,-2.29688 -0.90625,-0.875 -2.484375,-0.90625 h -3.9375 z m 16.105408,2.04688 h -5.40625 v -1.67188 h 5.40625 z m 14.156631,0.89062 q -0.296875,2.54688 -1.890625,3.9375 -1.578125,1.39063 -4.21875,1.39063 -2.859375,0 -4.578125,-2.04688 -1.71875,-2.04687 -1.71875,-5.46875 v -1.54687 q 0,-2.25 0.796875,-3.95313 0.8125,-1.70312 2.28125,-2.60937 1.46875,-0.921875 3.40625,-0.921875 2.5625,0 4.109375,1.437495 1.5625,1.42188 1.8125,3.95313 h -2.140625 q -0.265625,-1.92188 -1.203125,-2.78125 -0.921875,-0.85938 -2.578125,-0.85938 -2.03125,0 -3.1875,1.5 -1.15625,1.5 -1.15625,4.28125 v 1.5625 q 0,2.625 1.09375,4.17188 1.09375,1.54687 3.0625,1.54687 1.765625,0 2.703125,-0.79687 0.953125,-0.8125 1.265625,-2.79688 z m 4.621475,-5.40625 q 1.359375,-1.67187 3.546875,-1.67187 3.796875,0 3.828125,4.28125 v 7.90625 h -2.046875 v -7.92188 q -0.01563,-1.29687 -0.59375,-1.90625 -0.578125,-0.625 -1.8125,-0.625 -1,0 -1.75,0.53125 -0.75,0.53125 -1.171875,1.39063 v 8.53125 h -2.046875 v -17 h 2.046875 z m 17.822388,10.51563 q -0.171875,-0.35938 -0.28125,-1.26563 -1.4375,1.48438 -3.40625,1.48438 -1.78125,0 -2.921875,-1 -1.125,-1 -1.125,-2.53125 0,-1.875 1.421875,-2.90625 1.421875,-1.03125 4,-1.03125 h 2 v -0.95313 q 0,-1.0625 -0.65625,-1.70312 -0.640625,-0.64063 -1.890625,-0.64063 -1.09375,0 -1.84375,0.5625 -0.734375,0.54688 -0.734375,1.32813 h -2.046875 q 0,-0.89063 0.625,-1.71875 0.640625,-0.84375 1.734375,-1.32813 1.09375,-0.48437 2.390625,-0.48437 2.078125,0 3.25,1.03125 1.171875,1.03125 1.21875,2.84375 v 5.51562 q 0,1.64063 0.40625,2.625 v 0.17188 z m -3.390625,-1.5625 q 0.953125,0 1.8125,-0.5 0.875,-0.5 1.265625,-1.29688 v -2.45312 h -1.609375 q -3.765625,0 -3.765625,2.20312 0,0.96875 0.640625,1.51563 0.640625,0.53125 1.65625,0.53125 z m 10.542511,1.5625 H 91.28598 V 103.9776 h 2.046875 z M 91.12973,100.80572 q 0,-0.5 0.296875,-0.843745 0.3125,-0.34375 0.90625,-0.34375 0.59375,0 0.90625,0.34375 0.3125,0.343745 0.3125,0.843745 0,0.5 -0.3125,0.82813 -0.3125,0.32812 -0.90625,0.32812 -0.59375,0 -0.90625,-0.32812 -0.296875,-0.32813 -0.296875,-0.82813 z m 7.419998,3.17188 0.0625,1.5 q 1.375,-1.71875 3.593752,-1.71875 3.79687,0 3.82812,4.28125 v 7.90625 h -2.04687 v -7.92188 q -0.0156,-1.29687 -0.59375,-1.90625 -0.57813,-0.625 -1.8125,-0.625 -1,0 -1.750002,0.53125 -0.75,0.53125 -1.171875,1.39063 v 8.53125 H 96.612228 V 103.9776 Z"
       fill-rule="nonzero"
       id="path38" />
    <path
       fill="#000000"
       fill-opacity="0"
       d="M 252.5853,297.31235 220.93177,169.15486"
       fill-rule="evenodd"
       id="path39" />
    <path
       stroke="#000000"
       stroke-width="3"
       stroke-linejoin="round"
       stroke-linecap="butt"
       stroke-dasharray="3, 9"
       d="M 252.5853,297.31235 223.39705,179.13617"
       fill-rule="evenodd"
       id="path40" />
    <path
       fill="#000000"
       stroke="#000000"
       stroke-width="3"
       stroke-linecap="butt"
       d="m 223.39703,179.13617 4.0843,2.46635 -5.49795,-8.18991 -1.0527,9.80786 z"
       fill-rule="evenodd"
       id="path41" />
    <path
       fill="#000000"
       fill-opacity="0"
       d="M 474.62466,297.31235 442.97113,169.15486"
       fill-rule="evenodd"
       id="path42" />
    <path
       stroke="#000000"
       stroke-width="3"
       stroke-linejoin="round"
       stroke-linecap="butt"
       stroke-dasharray="3, 9"
       d="M 474.62466,297.31235 445.4364,179.13617"
       fill-rule="evenodd"
       id="path43" />
    <path
       fill="#000000"
       stroke="#000000"
       stroke-width="3"
       stroke-linecap="butt"
       d="m 445.4364,179.13617 4.08429,2.46635 -5.49796,-8.18991 -1.05267,9.80786 z"
       fill-rule="evenodd"
       id="path44" />
    <path
       fill="#000000"
       fill-opacity="0"
       d="M 712.46716,304.35434 680.84515,176.19685"
       fill-rule="evenodd"
       id="path45" />
    <path
       stroke="#000000"
       stroke-width="3"
       stroke-linejoin="round"
       stroke-linecap="butt"
       stroke-dasharray="3, 9"
       d="M 712.46716,304.35434 683.3081,186.17874"
       fill-rule="evenodd"
       id="path46" />
    <path
       fill="#000000"
       stroke="#000000"
       stroke-width="3"
       stroke-linecap="butt"
       d="m 683.3081,186.17874 4.08374,2.4673 -5.49609,-8.19119 -1.05494,9.80761 z"
       fill-rule="evenodd"
       id="path47" />
  </g>
</svg>
