<svg version="1.1" viewBox="0.0 0.0 1024.0 768.0" fill="none" stroke="none" stroke-linecap="square" stroke-miterlimit="10" xmlns:xlink="http://www.w3.org/1999/xlink" xmlns="http://www.w3.org/2000/svg"><clipPath id="p.0"><path d="m0 0l1024.0 0l0 768.0l-1024.0 0l0 -768.0z" clip-rule="nonzero"/></clipPath><g clip-path="url(#p.0)"><path fill="#000000" fill-opacity="0.0" d="m0 0l1024.0 0l0 768.0l-1024.0 0z" fill-rule="evenodd"/><path fill="#6fa8dc" d="m189.02625 297.31235l127.1181 0l0 127.1181l-127.1181 0z" fill-rule="evenodd"/><path stroke="#000000" stroke-width="3.0" stroke-linejoin="round" stroke-linecap="butt" d="m189.02625 297.31235l127.1181 0l0 127.1181l-127.1181 0z" fill-rule="evenodd"/><path fill="#6fa8dc" d="m411.0656 297.31235l127.1181 0l0 127.1181l-127.1181 0z" fill-rule="evenodd"/><path stroke="#000000" stroke-width="3.0" stroke-linejoin="round" stroke-linecap="butt" d="m411.0656 297.31235l127.1181 0l0 127.1181l-127.1181 0z" fill-rule="evenodd"/><path fill="#000000" fill-opacity="0.0" d="m316.14435 360.8714l94.92914 0" fill-rule="evenodd"/><path stroke="#000000" stroke-width="3.0" stroke-linejoin="round" stroke-linecap="butt" stroke-dasharray="3.0,9.0" d="m316.14435 360.8714l94.92914 0" fill-rule="evenodd"/><path fill="#cfe2f3" d="m633.105 297.31235l127.1181 0l0 127.1181l-127.1181 0z" fill-rule="evenodd"/><path stroke="#000000" stroke-width="3.0" stroke-linejoin="round" stroke-linecap="butt" stroke-dasharray="12.0,9.0" d="m633.105 297.31235l127.1181 0l0 127.1181l-127.1181 0z" fill-rule="evenodd"/><path fill="#000000" fill-opacity="0.0" d="m538.17584 360.8714l94.92914 0" fill-rule="evenodd"/><path stroke="#000000" stroke-width="3.0" stroke-linejoin="round" stroke-linecap="butt" stroke-dasharray="3.0,9.0" d="m538.17584 360.8714l94.92914 0" fill-rule="evenodd"/><path fill="#e06666" d="m157.38846 42.052494l127.1181 0l0 127.11812l-127.1181 0z" fill-rule="evenodd"/><path stroke="#000000" stroke-width="3.0" stroke-linejoin="round" stroke-linecap="butt" d="m157.38846 42.052494l127.1181 0l0 127.11812l-127.1181 0z" fill-rule="evenodd"/><path fill="#f4cccc" d="m379.42783 42.052494l127.1181 0l0 127.11812l-127.1181 0z" fill-rule="evenodd"/><path stroke="#000000" stroke-width="3.0" stroke-linejoin="round" stroke-linecap="butt" d="m379.42783 42.052494l127.1181 0l0 127.11812l-127.1181 0z" fill-rule="evenodd"/><path fill="#000000" fill-opacity="0.0" d="m284.50656 105.61155l94.92914 0" fill-rule="evenodd"/><path stroke="#000000" stroke-width="3.0" stroke-linejoin="round" stroke-linecap="butt" stroke-dasharray="3.0,9.0" d="m284.50656 105.61155l94.92914 0" fill-rule="evenodd"/><path fill="#f4cccc" d="m601.47504 42.052494l127.118164 0l0 127.11812l-127.118164 0z" fill-rule="evenodd"/><path stroke="#000000" stroke-width="3.0" stroke-linejoin="round" stroke-linecap="butt" d="m601.47504 42.052494l127.118164 0l0 127.11812l-127.118164 0z" fill-rule="evenodd"/><path fill="#000000" fill-opacity="0.0" d="m506.54593 105.61155l94.92911 0" fill-rule="evenodd"/><path stroke="#000000" stroke-width="3.0" stroke-linejoin="round" stroke-linecap="butt" stroke-dasharray="3.0,9.0" d="m506.54593 105.61155l94.92911 0" fill-rule="evenodd"/><path fill="#000000" fill-opacity="0.0" d="m220.66405 333.40683l63.842514 0l0 54.92914l-63.842514 0z" fill-rule="evenodd"/><path fill="#000000" d="m252.61037 357.70746l5.0000153 -7.984375l3.234375 0l-6.5781403 10.328125l6.7343903 10.515625l-3.265625 0l-5.1250153 -8.140625l-5.15625 8.140625l-3.25 0l6.765625 -10.515625l-6.609375 -10.328125l3.234375 0l5.015625 7.984375z" fill-rule="nonzero"/><path fill="#000000" fill-opacity="0.0" d="m442.7034 333.40683l63.84253 0l0 54.92914l-63.84253 0z" fill-rule="evenodd"/><path fill="#000000" d="m474.59888 360.19183l5.4375 -10.46875l3.125 0l-7.1875 13.0625l0 7.78125l-2.75 0l0 -7.78125l-7.1875 -13.0625l3.140625 0l5.421875 10.46875z" fill-rule="nonzero"/><path fill="#000000" fill-opacity="0.0" d="m189.02625 78.14698l63.842514 0l0 54.92913l-63.842514 0z" fill-rule="evenodd"/><path fill="#000000" d="m225.319 109.869484l-8.734375 0l-1.96875 5.4375l-2.828125 0l7.953125 -20.84375l2.40625 0l7.984375 20.84375l-2.828125 0l-1.984375 -5.4375zm-7.90625 -2.265625l7.09375 0l-3.5625 -9.75l-3.53125 9.75z" fill-rule="nonzero"/><path fill="#000000" fill-opacity="0.0" d="m411.06955 78.14698l63.84253 0l0 54.92913l-63.84253 0z" fill-rule="evenodd"/><path fill="#000000" d="m436.28345 115.306984l0 -20.84375l6.8125 0q3.390625 0 5.09375 1.40625q1.71875 1.390625 1.71875 4.140625q0 1.46875 -0.828125 2.59375q-0.828125 1.125 -2.265625 1.734375q1.703125 0.46875 2.671875 1.796875q0.984375 1.328125 0.984375 3.15625q0 2.8125 -1.828125 4.421875q-1.8125 1.59375 -5.125 1.59375l-7.234375 0zm2.75 -9.75l0 7.5l4.53125 0q1.921875 0 3.03125 -0.984375q1.109375 -1.0 1.109375 -2.75q0 -3.765625 -4.09375 -3.765625l-4.578125 0zm0 -2.203125l4.15625 0q1.796875 0 2.875 -0.90625q1.09375 -0.90625 1.09375 -2.453125q0 -1.71875 -1.015625 -2.5q-1.0 -0.78125 -3.046875 -0.78125l-4.0625 0l0 6.640625z" fill-rule="nonzero"/><path fill="#000000" fill-opacity="0.0" d="m633.1076 78.14698l63.84253 0l0 54.92913l-63.84253 0z" fill-rule="evenodd"/><path fill="#000000" d="m673.2343 108.69761q-0.375 3.296875 -2.4375 5.09375q-2.046875 1.796875 -5.453125 1.796875q-3.703125 0 -5.9375 -2.640625q-2.21875 -2.65625 -2.21875 -7.09375l0 -2.0q0 -2.90625 1.03125 -5.109375q1.046875 -2.21875 2.953125 -3.390625q1.90625 -1.1875 4.40625 -1.1875q3.328125 0 5.328125 1.859375q2.0 1.859375 2.328125 5.125l-2.75 0q-0.359375 -2.484375 -1.5625 -3.59375q-1.1875 -1.125 -3.34375 -1.125q-2.640625 0 -4.140625 1.953125q-1.484375 1.9375 -1.484375 5.53125l0 2.03125q0 3.390625 1.40625 5.390625q1.421875 2.0 3.984375 2.0q2.28125 0 3.5 -1.03125q1.234375 -1.03125 1.640625 -3.609375l2.75 0z" fill-rule="nonzero"/><path fill="#000000" fill-opacity="0.0" d="m664.7349 333.40683l63.84253 0l0 54.92914l-63.84253 0z" fill-rule="evenodd"/><path fill="#000000" d="m692.3622 368.31683l11.921814 0l0 2.25l-15.171814 0l0 -2.0625l11.421814 -16.53125l-11.234314 0l0 -2.25l14.531189 0l0 2.015625l-11.468689 16.578125z" fill-rule="nonzero"/><path fill="#000000" fill-opacity="0.0" d="m0 340.4462l170.20473 0l0 40.850403l-170.20473 0z" fill-rule="evenodd"/><path fill="#000000" d="m15.609375 364.03433q-2.71875 -0.796875 -3.96875 -1.9375q-1.25 -1.140625 -1.25 -2.828125q0 -1.90625 1.515625 -3.140625q1.53125 -1.25 3.96875 -1.25q1.65625 0 2.953125 0.640625q1.296875 0.640625 2.015625 1.78125q0.71875 1.125 0.71875 2.453125l-2.140625 0q0 -1.453125 -0.9375 -2.28125q-0.921875 -0.84375 -2.609375 -0.84375q-1.578125 0 -2.453125 0.6875q-0.875 0.6875 -0.875 1.921875q0 0.984375 0.828125 1.671875q0.828125 0.671875 2.828125 1.234375q2.015625 0.5625 3.15625 1.25q1.140625 0.671875 1.6875 1.578125q0.546875 0.90625 0.546875 2.140625q0 1.953125 -1.53125 3.140625q-1.53125 1.171875 -4.078125 1.171875q-1.65625 0 -3.109375 -0.625q-1.4375 -0.640625 -2.21875 -1.75q-0.765625 -1.109375 -0.765625 -2.515625l2.125 0q0 1.46875 1.078125 2.3125q1.078125 0.84375 2.890625 0.84375q1.671875 0 2.5625 -0.6875q0.90625 -0.6875 0.90625 -1.859375q0 -1.1875 -0.828125 -1.828125q-0.828125 -0.65625 -3.015625 -1.28125zm15.769211 5.984375q-1.1875 1.40625 -3.5 1.40625q-1.921875 0 -2.921875 -1.109375q-1.0 -1.109375 -1.015625 -3.296875l0 -7.78125l2.046875 0l0 7.734375q0 2.71875 2.21875 2.71875q2.34375 0 3.125 -1.75l0 -8.703125l2.046875 0l0 11.96875l-1.953125 0l-0.046875 -1.1875zm15.2397 -4.671875q0 2.75 -1.265625 4.421875q-1.265625 1.65625 -3.390625 1.65625q-2.265625 0 -3.5 -1.609375l-0.109375 1.390625l-1.875 0l0 -17.0l2.046875 0l0 6.34375q1.234375 -1.53125 3.40625 -1.53125q2.1875 0 3.4375 1.65625q1.25 1.640625 1.25 4.5l0 0.171875zm-2.046875 -0.21875q0 -2.09375 -0.8125 -3.234375q-0.8125 -1.140625 -2.328125 -1.140625q-2.015625 0 -2.90625 1.875l0 5.1875q0.9375 1.875 2.9375 1.875q1.46875 0 2.28125 -1.140625q0.828125 -1.140625 0.828125 -3.421875zm6.5547028 -5.890625l0.0625 1.5q1.375 -1.71875 3.59375 -1.71875q3.796875 0 3.828125 4.28125l0 7.90625l-2.046875 0l0 -7.921875q-0.015625 -1.296875 -0.59375 -1.90625q-0.578125 -0.625 -1.8125 -0.625q-1.0 0 -1.75 0.53125q-0.75 0.53125 -1.171875 1.390625l0 8.53125l-2.046875 0l0 -11.96875l1.9375 0zm15.532013 12.1875q-2.4375 0 -3.96875 -1.59375q-1.515625 -1.59375 -1.515625 -4.28125l0 -0.375q0 -1.78125 0.671875 -3.171875q0.6875 -1.40625 1.90625 -2.1875q1.21875 -0.796875 2.65625 -0.796875q2.328125 0 3.625 1.546875q1.296875 1.53125 1.296875 4.390625l0 0.84375l-8.109375 0q0.046875 1.78125 1.03125 2.875q0.984375 1.078125 2.515625 1.078125q1.078125 0 1.828125 -0.4375q0.765625 -0.4375 1.328125 -1.171875l1.25 0.96875q-1.5 2.3125 -4.515625 2.3125zm-0.25 -10.734375q-1.25 0 -2.09375 0.90625q-0.828125 0.90625 -1.03125 2.53125l6.0 0l0 -0.15625q-0.09375 -1.5625 -0.84375 -2.421875q-0.75 -0.859375 -2.03125 -0.859375zm10.065445 -4.359375l0 2.90625l2.234375 0l0 1.578125l-2.234375 0l0 7.421875q0 0.71875 0.296875 1.078125q0.296875 0.359375 1.015625 0.359375q0.359375 0 0.96875 -0.125l0 1.65625q-0.796875 0.21875 -1.5625 0.21875q-1.375 0 -2.078125 -0.828125q-0.6875 -0.828125 -0.6875 -2.359375l0 -7.421875l-2.1875 0l0 -1.578125l2.1875 0l0 -2.90625l2.046875 0zm22.400269 9.765625q-0.296875 2.546875 -1.890625 3.9375q-1.578125 1.390625 -4.21875 1.390625q-2.859375 0 -4.578125 -2.046875q-1.71875 -2.046875 -1.71875 -5.46875l0 -1.546875q0 -2.25 0.796875 -3.953125q0.8125 -1.703125 2.28125 -2.609375q1.46875 -0.921875 3.40625 -0.921875q2.5625 0 4.109375 1.4375q1.5625 1.421875 1.8125 3.953125l-2.140625 0q-0.265625 -1.921875 -1.203125 -2.78125q-0.921875 -0.859375 -2.578125 -0.859375q-2.03125 0 -3.1875 1.5q-1.15625 1.5 -1.15625 4.28125l0 1.5625q0 2.625 1.09375 4.171875q1.09375 1.546875 3.0625 1.546875q1.765625 0 2.703125 -0.796875q0.953125 -0.8125 1.265625 -2.796875l2.140625 0zm4.621475 -5.40625q1.359375 -1.671875 3.546875 -1.671875q3.796875 0 3.828125 4.28125l0 7.90625l-2.046875 0l0 -7.921875q-0.015625 -1.296875 -0.59375 -1.90625q-0.578125 -0.625 -1.8125 -0.625q-1.0 0 -1.75 0.53125q-0.75 0.53125 -1.171875 1.390625l0 8.53125l-2.046875 0l0 -17.0l2.046875 0l0 6.484375zm17.822388 10.515625q-0.171875 -0.359375 -0.28125 -1.265625q-1.4375 1.484375 -3.40625 1.484375q-1.78125 0 -2.921875 -1.0q-1.125 -1.0 -1.125 -2.53125q0 -1.875 1.421875 -2.90625q1.421875 -1.03125 4.0 -1.03125l2.0 0l0 -0.953125q0 -1.0625 -0.65625 -1.703125q-0.640625 -0.640625 -1.890625 -0.640625q-1.09375 0 -1.84375 0.5625q-0.734375 0.546875 -0.734375 1.328125l-2.046875 0q0 -0.890625 0.625 -1.71875q0.640625 -0.84375 1.734375 -1.328125q1.09375 -0.484375 2.390625 -0.484375q2.078125 0 3.25 1.03125q1.171875 1.03125 1.21875 2.84375l0 5.515625q0 1.640625 0.40625 2.625l0 0.171875l-2.140625 0zm-3.390625 -1.5625q0.953125 0 1.8125 -0.5q0.875 -0.5 1.265625 -1.296875l0 -2.453125l-1.609375 0q-3.765625 0 -3.765625 2.203125q0 0.96875 0.640625 1.515625q0.640625 0.53125 1.65625 0.53125zm10.542511 1.5625l-2.046875 0l0 -11.96875l2.046875 0l0 11.96875zm-2.203125 -15.140625q0 -0.5 0.296875 -0.84375q0.3125 -0.34375 0.90625 -0.34375q0.59375 0 0.90625 0.34375q0.3125 0.34375 0.3125 0.84375q0 0.5 -0.3125 0.828125q-0.3125 0.328125 -0.90625 0.328125q-0.59375 0 -0.90625 -0.328125q-0.296875 -0.328125 -0.296875 -0.828125zm7.419998 3.171875l0.0625 1.5q1.375 -1.71875 3.59375 -1.71875q3.796875 0 3.828125 4.28125l0 7.90625l-2.046875 0l0 -7.921875q-0.015625 -1.296875 -0.59375 -1.90625q-0.578125 -0.625 -1.8125 -0.625q-1.0 0 -1.75 0.53125q-0.75 0.53125 -1.171875 1.390625l0 8.53125l-2.046875 0l0 -11.96875l1.9375 0z" fill-rule="nonzero"/><path fill="#000000" fill-opacity="0.0" d="m20.475065 85.18635l101.88976 0l0 40.850395l-101.88976 0z" fill-rule="evenodd"/><path fill="#000000" d="m33.475067 109.63385l0 6.3125l-2.125002 0l0 -16.109375l5.937502 0q2.640625 0 4.140625 1.359375q1.5 1.34375 1.5 3.5625q0 2.34375 -1.46875 3.609375q-1.46875 1.265625 -4.203125 1.265625l-3.78125 0zm0 -1.734375l3.8125 0q1.703125 0 2.609375 -0.796875q0.90625 -0.796875 0.90625 -2.3125q0 -1.4375 -0.90625 -2.296875q-0.90625 -0.875 -2.484375 -0.90625l-3.9375 0l0 6.3125zm16.105408 2.046875l-5.40625 0l0 -1.671875l5.40625 0l0 1.671875zm14.156631 0.890625q-0.296875 2.546875 -1.890625 3.9375q-1.578125 1.390625 -4.21875 1.390625q-2.859375 0 -4.578125 -2.046875q-1.71875 -2.046875 -1.71875 -5.46875l0 -1.546875q0 -2.25 0.796875 -3.953125q0.8125 -1.703125 2.28125 -2.609375q1.46875 -0.921875 3.40625 -0.921875q2.5625 0 4.109375 1.4375q1.5625 1.421875 1.8125 3.953125l-2.140625 0q-0.265625 -1.921875 -1.203125 -2.78125q-0.921875 -0.859375 -2.578125 -0.859375q-2.03125 0 -3.1875 1.5q-1.15625 1.5 -1.15625 4.28125l0 1.5625q0 2.625 1.09375 4.171875q1.09375 1.546875 3.0625 1.546875q1.765625 0 2.703125 -0.796875q0.953125 -0.8125 1.265625 -2.796875l2.140625 0zm4.621475 -5.40625q1.359375 -1.671875 3.546875 -1.671875q3.796875 0 3.828125 4.28125l0 7.90625l-2.046875 0l0 -7.921875q-0.015625 -1.296875 -0.59375 -1.90625q-0.578125 -0.625 -1.8125 -0.625q-1.0 0 -1.75 0.53125q-0.75 0.53125 -1.171875 1.390625l0 8.53125l-2.046875 0l0 -17.0l2.046875 0l0 6.484375zm17.822388 10.515625q-0.171875 -0.359375 -0.28125 -1.265625q-1.4375 1.484375 -3.40625 1.484375q-1.78125 0 -2.921875 -1.0q-1.125 -1.0 -1.125 -2.53125q0 -1.875 1.421875 -2.90625q1.421875 -1.03125 4.0 -1.03125l2.0 0l0 -0.953125q0 -1.0625 -0.65625 -1.703125q-0.640625 -0.640625 -1.890625 -0.640625q-1.09375 0 -1.84375 0.5625q-0.734375 0.546875 -0.734375 1.328125l-2.046875 0q0 -0.890625 0.625 -1.71875q0.640625 -0.84375 1.734375 -1.328125q1.09375 -0.484375 2.390625 -0.484375q2.078125 0 3.25 1.03125q1.171875 1.03125 1.21875 2.84375l0 5.515625q0 1.640625 0.40625 2.625l0 0.171875l-2.140625 0zm-3.390625 -1.5625q0.953125 0 1.8125 -0.5q0.875 -0.5 1.265625 -1.296875l0 -2.453125l-1.609375 0q-3.765625 0 -3.765625 2.203125q0 0.96875 0.640625 1.515625q0.640625 0.53125 1.65625 0.53125zm10.542511 1.5625l-2.046875 0l0 -11.96875l2.046875 0l0 11.96875zm-2.203125 -15.140625q0 -0.5 0.296875 -0.84375q0.3125 -0.34375 0.90625 -0.34375q0.59375 0 0.90625 0.34375q0.3125 0.34375 0.3125 0.84375q0 0.5 -0.3125 0.828125q-0.3125 0.328125 -0.90625 0.328125q-0.59375 0 -0.90625 -0.328125q-0.296875 -0.328125 -0.296875 -0.828125zm7.419998 3.171875l0.0625 1.5q1.375 -1.71875 3.59375 -1.71875q3.796875 0 3.828125 4.28125l0 7.90625l-2.046875 0l0 -7.921875q-0.015625 -1.296875 -0.59375 -1.90625q-0.578125 -0.625 -1.8125 -0.625q-1.0 0 -1.75 0.53125q-0.75 0.53125 -1.171875 1.390625l0 8.53125l-2.046875 0l0 -11.96875l1.9375 0z" fill-rule="nonzero"/><path fill="#000000" fill-opacity="0.0" d="m252.5853 297.31235l-31.653534 -128.15749" fill-rule="evenodd"/><path stroke="#000000" stroke-width="3.0" stroke-linejoin="round" stroke-linecap="butt" stroke-dasharray="3.0,9.0" d="m252.5853 297.31235l-29.188248 -118.17618" fill-rule="evenodd"/><path fill="#000000" stroke="#000000" stroke-width="3.0" stroke-linecap="butt" d="m223.39703 179.13617l4.084305 2.4663544l-5.4979553 -8.189911l-1.0527039 9.807861z" fill-rule="evenodd"/><path fill="#000000" fill-opacity="0.0" d="m474.62466 297.31235l-31.653534 -128.15749" fill-rule="evenodd"/><path stroke="#000000" stroke-width="3.0" stroke-linejoin="round" stroke-linecap="butt" stroke-dasharray="3.0,9.0" d="m474.62466 297.31235l-29.188263 -118.17618" fill-rule="evenodd"/><path fill="#000000" stroke="#000000" stroke-width="3.0" stroke-linecap="butt" d="m445.4364 179.13617l4.0842896 2.4663544l-5.4979553 -8.189911l-1.0526733 9.807861z" fill-rule="evenodd"/><path fill="#000000" fill-opacity="0.0" d="m712.46716 304.35434l-31.62201 -128.15749" fill-rule="evenodd"/><path stroke="#000000" stroke-width="3.0" stroke-linejoin="round" stroke-linecap="butt" stroke-dasharray="3.0,9.0" d="m712.46716 304.35434l-29.159058 -118.1756" fill-rule="evenodd"/><path fill="#000000" stroke="#000000" stroke-width="3.0" stroke-linecap="butt" d="m683.3081 186.17874l4.08374 2.4673004l-5.4960938 -8.191193l-1.0549316 9.807617z" fill-rule="evenodd"/><path fill="#fff2cc" d="m616.49866 632.7297l0 0c0 -44.269775 35.887756 -80.15747 80.15753 -80.15747l0 0c21.259094 0 41.64746 8.445129 56.67987 23.47754c15.032471 15.032471 23.4776 35.420837 23.4776 56.67993l0 0c0 44.269714 -35.887756 80.15747 -80.15747 80.15747l0 0c-44.269775 0 -80.15753 -35.887756 -80.15753 -80.15747z" fill-rule="evenodd"/><path stroke="#000000" stroke-width="3.0" stroke-linejoin="round" stroke-linecap="butt" d="m616.49866 632.7297l0 0c0 -44.269775 35.887756 -80.15747 80.15753 -80.15747l0 0c21.259094 0 41.64746 8.445129 56.67987 23.47754c15.032471 15.032471 23.4776 35.420837 23.4776 56.67993l0 0c0 44.269714 -35.887756 80.15747 -80.15747 80.15747l0 0c-44.269775 0 -80.15753 -35.887756 -80.15753 -80.15747z" fill-rule="evenodd"/><path fill="#000000" fill-opacity="0.0" d="m620.90027 605.2651l151.52753 0l0 50.078735l-151.52753 0z" fill-rule="evenodd"/><path fill="#000000" d="m654.35156 635.42883l5.15625 -14.84375l2.59375 0l-6.6875 18.0l-2.09375 0l-6.671875 -18.0l2.59375 0l5.109375 14.84375zm17.498596 3.15625q-0.203125 -0.390625 -0.328125 -1.40625q-1.59375 1.65625 -3.8125 1.65625q-1.96875 0 -3.25 -1.109375q-1.265625 -1.125 -1.265625 -2.84375q0 -2.09375 1.59375 -3.25q1.59375 -1.15625 4.46875 -1.15625l2.234375 0l0 -1.0625q0 -1.1875 -0.71875 -1.890625q-0.71875 -0.71875 -2.125 -0.71875q-1.21875 0 -2.046875 0.625q-0.828125 0.609375 -0.828125 1.484375l-2.296875 0q0 -1.0 0.703125 -1.9375q0.71875 -0.9375 1.9375 -1.46875q1.21875 -0.546875 2.671875 -0.546875q2.3125 0 3.625 1.15625q1.3125 1.15625 1.359375 3.1875l0 6.15625q0 1.84375 0.46875 2.921875l0 0.203125l-2.390625 0zm-3.796875 -1.75q1.0625 0 2.03125 -0.546875q0.96875 -0.5625 1.40625 -1.453125l0 -2.75l-1.796875 0q-4.203125 0 -4.203125 2.46875q0 1.078125 0.71875 1.6875q0.71875 0.59375 1.84375 0.59375zm11.792786 1.75l-2.296875 0l0 -19.0l2.296875 0l0 19.0zm6.1464844 0l-2.296875 0l0 -13.375l2.296875 0l0 13.375zm-2.46875 -16.9375q0 -0.546875 0.328125 -0.921875q0.34375 -0.390625 1.015625 -0.390625q0.671875 0 1.015625 0.390625q0.34375 0.375 0.34375 0.9375q0 0.546875 -0.34375 0.921875q-0.34375 0.375 -1.015625 0.375q-0.671875 0 -1.015625 -0.375q-0.328125 -0.375 -0.328125 -0.9375zm5.5684204 10.140625q0 -3.078125 1.453125 -4.953125q1.46875 -1.875 3.828125 -1.875q2.359375 0 3.71875 1.609375l0 -6.984375l2.296875 0l0 19.0l-2.109375 0l-0.109375 -1.4375q-1.375 1.6875 -3.8125 1.6875q-2.328125 0 -3.796875 -1.90625q-1.46875 -1.90625 -1.46875 -4.96875l0 -0.171875zm2.296875 0.25q0 2.28125 0.9375 3.578125q0.9375 1.28125 2.59375 1.28125q2.171875 0 3.171875 -1.953125l0 -6.15625q-1.015625 -1.890625 -3.140625 -1.890625q-1.6875 0 -2.625 1.296875q-0.9375 1.296875 -0.9375 3.84375zm20.81543 6.546875q-0.203125 -0.390625 -0.328125 -1.40625q-1.59375 1.65625 -3.8125 1.65625q-1.96875 0 -3.25 -1.109375q-1.265625 -1.125 -1.265625 -2.84375q0 -2.09375 1.59375 -3.25q1.59375 -1.15625 4.46875 -1.15625l2.234375 0l0 -1.0625q0 -1.1875 -0.71875 -1.890625q-0.71875 -0.71875 -2.125 -0.71875q-1.21875 0 -2.046875 0.625q-0.828125 0.609375 -0.828125 1.484375l-2.296875 0q0 -1.0 0.703125 -1.9375q0.71875 -0.9375 1.9375 -1.46875q1.21875 -0.546875 2.671875 -0.546875q2.3125 0 3.625 1.15625q1.3125 1.15625 1.359375 3.1875l0 6.15625q0 1.84375 0.46875 2.921875l0 0.203125l-2.390625 0zm-3.796875 -1.75q1.0625 0 2.03125 -0.546875q0.96875 -0.5625 1.40625 -1.453125l0 -2.75l-1.796875 0q-4.203125 0 -4.203125 2.46875q0 1.078125 0.71875 1.6875q0.71875 0.59375 1.84375 0.59375zm12.4021 -14.875l0 3.25l2.5 0l0 1.765625l-2.5 0l0 8.296875q0 0.796875 0.328125 1.203125q0.34375 0.40625 1.15625 0.40625q0.390625 0 1.078125 -0.15625l0 1.859375q-0.890625 0.25 -1.75 0.25q-1.53125 0 -2.3125 -0.921875q-0.78125 -0.9375 -0.78125 -2.640625l0 -8.296875l-2.4375 0l0 -1.765625l2.4375 0l0 -3.25l2.28125 0zm4.323181 9.8125q0 -1.96875 0.765625 -3.53125q0.78125 -1.578125 2.15625 -2.421875q1.375 -0.859375 3.15625 -0.859375q2.734375 0 4.421875 1.890625q1.6875 1.890625 1.6875 5.03125l0 0.15625q0 1.953125 -0.75 3.515625q-0.75 1.546875 -2.140625 2.421875q-1.390625 0.859375 -3.203125 0.859375q-2.71875 0 -4.40625 -1.890625q-1.6875 -1.890625 -1.6875 -5.015625l0 -0.15625zm2.296875 0.265625q0 2.234375 1.03125 3.578125q1.03125 1.34375 2.765625 1.34375q1.75 0 2.765625 -1.359375q1.03125 -1.375 1.03125 -3.828125q0 -2.203125 -1.046875 -3.5625q-1.046875 -1.375 -2.765625 -1.375q-1.703125 0 -2.75 1.359375q-1.03125 1.34375 -1.03125 3.84375zm19.226196 -4.78125q-0.515625 -0.09375 -1.125 -0.09375q-2.25 0 -3.0625 1.921875l0 9.5l-2.28125 0l0 -13.375l2.21875 0l0.046875 1.546875q1.125 -1.796875 3.1875 -1.796875q0.671875 0 1.015625 0.171875l0 2.125z" fill-rule="nonzero"/><path fill="#fff2cc" d="m251.81364 632.7297l0 0c0 -44.269775 35.88774 -80.15747 80.157486 -80.15747l0 0c21.259094 0 41.64746 8.445129 56.6799 23.47754c15.03244 15.032471 23.47757 35.420837 23.47757 56.67993l0 0c0 44.269714 -35.887726 80.15747 -80.15747 80.15747l0 0c-44.269745 0 -80.157486 -35.887756 -80.157486 -80.15747z" fill-rule="evenodd"/><path stroke="#000000" stroke-width="3.0" stroke-linejoin="round" stroke-linecap="butt" d="m251.81364 632.7297l0 0c0 -44.269775 35.88774 -80.15747 80.157486 -80.15747l0 0c21.259094 0 41.64746 8.445129 56.6799 23.47754c15.03244 15.032471 23.47757 35.420837 23.47757 56.67993l0 0c0 44.269714 -35.887726 80.15747 -80.15747 80.15747l0 0c-44.269745 0 -80.157486 -35.887756 -80.157486 -80.15747z" fill-rule="evenodd"/><path fill="#000000" fill-opacity="0.0" d="m287.41995 605.2651l89.102356 0l0 50.078735l-89.102356 0z" fill-rule="evenodd"/><path fill="#000000" d="m310.8273 631.5382l0 7.046875l-2.375 0l0 -18.0l6.640625 0q2.953125 0 4.625 1.515625q1.671875 1.5 1.671875 3.984375q0 2.625 -1.640625 4.046875q-1.625 1.40625 -4.6875 1.40625l-4.234375 0zm0 -1.9375l4.265625 0q1.90625 0 2.921875 -0.890625q1.015625 -0.90625 1.015625 -2.609375q0 -1.609375 -1.015625 -2.5625q-1.015625 -0.96875 -2.78125 -1.0l-4.40625 0l0 7.0625zm18.630188 9.234375q-2.71875 0 -4.421875 -1.78125q-1.703125 -1.796875 -1.703125 -4.78125l0 -0.421875q0 -2.0 0.75 -3.5625q0.765625 -1.5625 2.125 -2.4375q1.375 -0.890625 2.96875 -0.890625q2.609375 0 4.046875 1.71875q1.453125 1.71875 1.453125 4.921875l0 0.953125l-9.0625 0q0.046875 1.96875 1.15625 3.1875q1.109375 1.21875 2.8125 1.21875q1.21875 0 2.046875 -0.484375q0.84375 -0.5 1.484375 -1.3125l1.390625 1.078125q-1.6875 2.59375 -5.046875 2.59375zm-0.28125 -12.0q-1.390625 0 -2.328125 1.015625q-0.9375 1.0 -1.15625 2.8125l6.703125 0l0 -0.171875q-0.109375 -1.734375 -0.953125 -2.6875q-0.828125 -0.96875 -2.265625 -0.96875zm13.699707 12.0q-2.71875 0 -4.421875 -1.78125q-1.703125 -1.796875 -1.703125 -4.78125l0 -0.421875q0 -2.0 0.75 -3.5625q0.765625 -1.5625 2.125 -2.4375q1.375 -0.890625 2.96875 -0.890625q2.609375 0 4.046875 1.71875q1.453125 1.71875 1.453125 4.921875l0 0.953125l-9.0625 0q0.046875 1.96875 1.15625 3.1875q1.109375 1.21875 2.8125 1.21875q1.21875 0 2.046875 -0.484375q0.84375 -0.5 1.484375 -1.3125l1.390625 1.078125q-1.6875 2.59375 -5.046875 2.59375zm-0.28125 -12.0q-1.390625 0 -2.328125 1.015625q-0.9375 1.0 -1.15625 2.8125l6.703125 0l0 -0.171875q-0.109375 -1.734375 -0.953125 -2.6875q-0.828125 -0.96875 -2.265625 -0.96875zm14.621613 0.421875q-0.515625 -0.09375 -1.125 -0.09375q-2.25 0 -3.0625 1.921875l0 9.5l-2.28125 0l0 -13.375l2.21875 0l0.046875 1.546875q1.125 -1.796875 3.1875 -1.796875q0.671875 0 1.015625 0.171875l0 2.125z" fill-rule="nonzero"/><path fill="#000000" fill-opacity="0.0" d="m412.1286 632.7297l208.78741 -2.425232" fill-rule="evenodd"/><path stroke="#000000" stroke-width="3.0" stroke-linejoin="round" stroke-linecap="butt" stroke-dasharray="24.0,9.0" d="m412.1286 632.7297l190.78864 -2.2161255" fill-rule="evenodd"/><path fill="#000000" stroke="#000000" stroke-width="3.0" stroke-linecap="butt" d="m602.9748 635.4684l13.555786 -5.112976l-13.670898 -4.796753z" fill-rule="evenodd"/><path fill="#000000" fill-opacity="0.0" d="m450.86615 552.5722l122.2677 0l0 54.92914l-122.2677 0z" fill-rule="evenodd"/><path fill="#000000" d="m465.61615 582.8203q-1.609375 -0.453125 -2.421875 -1.5q-0.8125 -1.03125 -0.8125 -2.75l0 -1.8125q0 -2.21875 -1.9375 -2.21875l0 -1.3125q1.9375 0 1.9375 -2.203125l0 -1.890625q0.015625 -1.671875 0.8125 -2.6875q0.796875 -1.03125 2.421875 -1.5l0.359375 1.046875q-1.90625 0.609375 -1.90625 3.171875l0 1.84375q0 2.078125 -1.53125 2.875q1.53125 0.828125 1.53125 2.90625l0 1.890625q0.03125 2.5 1.90625 3.09375l-0.359375 1.046875zm2.1097412 -3.328125l0 -13.265625l4.328125 0q2.15625 0 3.25 0.890625q1.09375 0.890625 1.09375 2.640625q0 0.9375 -0.53125 1.65625q-0.53125 0.703125 -1.4375 1.09375q1.0625 0.3125 1.6875 1.15625q0.625 0.84375 0.625 2.0q0 1.78125 -1.15625 2.8125q-1.15625 1.015625 -3.265625 1.015625l-4.59375 0zm1.734375 -6.203125l0 4.765625l2.890625 0q1.21875 0 1.921875 -0.625q0.71875 -0.640625 0.71875 -1.75q0 -2.390625 -2.609375 -2.390625l-2.921875 0zm0 -1.40625l2.65625 0q1.140625 0 1.828125 -0.5625q0.6875 -0.578125 0.6875 -1.5625q0 -1.09375 -0.640625 -1.59375q-0.640625 -0.5 -1.9375 -0.5l-2.59375 0l0 4.21875zm9.552124 10.25l-0.953125 -0.65625q0.859375 -1.1875 0.890625 -2.453125l0 -1.53125l1.65625 0l0 1.328125q0 0.921875 -0.453125 1.84375q-0.453125 0.921875 -1.140625 1.46875zm10.343018 -7.828125l0 5.1875l-1.734375 0l0 -13.265625l4.890625 0q2.171875 0 3.40625 1.109375q1.234375 1.109375 1.234375 2.953125q0 1.921875 -1.21875 2.96875q-1.203125 1.046875 -3.453125 1.046875l-3.125 0zm0 -1.4375l3.15625 0q1.390625 0 2.140625 -0.65625q0.75 -0.65625 0.75 -1.90625q0 -1.1875 -0.75 -1.890625q-0.75 -0.71875 -2.046875 -0.75l-3.25 0l0 5.203125zm14.535095 -1.71875q-0.390625 -0.0625 -0.84375 -0.0625q-1.65625 0 -2.25 1.40625l0 7.0l-1.671875 0l0 -9.859375l1.640625 0l0.015625 1.140625q0.828125 -1.3125 2.359375 -1.3125q0.484375 0 0.75 0.125l0 1.5625zm0.9118347 3.328125q0 -1.453125 0.5625 -2.609375q0.578125 -1.15625 1.59375 -1.78125q1.015625 -0.625 2.3125 -0.625q2.015625 0 3.2500305 1.390625q1.25 1.390625 1.25 3.703125l0 0.125q0 1.4375 -0.546875 2.578125q-0.546875 1.140625 -1.5781555 1.78125q-1.015625 0.640625 -2.359375 0.640625q-2.0 0 -3.25 -1.390625q-1.234375 -1.40625 -1.234375 -3.703125l0 -0.109375zm1.6875 0.203125q0 1.640625 0.765625 2.640625q0.765625 0.984375 2.03125 0.984375q1.296875 0 2.046875 -1.0q0.7500305 -1.015625 0.7500305 -2.828125q0 -1.625 -0.7656555 -2.625q-0.765625 -1.015625 -2.046875 -1.015625q-1.25 0 -2.015625 1.0q-0.765625 0.984375 -0.765625 2.84375zm8.952423 -0.203125q0 -1.453125 0.5625 -2.609375q0.578125 -1.15625 1.59375 -1.78125q1.015625 -0.625 2.3125 -0.625q2.015625 0 3.25 1.390625q1.25 1.390625 1.25 3.703125l0 0.125q0 1.4375 -0.546875 2.578125q-0.546875 1.140625 -1.578125 1.78125q-1.015625 0.640625 -2.359375 0.640625q-2.0 0 -3.25 -1.390625q-1.234375 -1.40625 -1.234375 -3.703125l0 -0.109375zm1.6875 0.203125q0 1.640625 0.765625 2.640625q0.765625 0.984375 2.03125 0.984375q1.296875 0 2.046875 -1.0q0.75 -1.015625 0.75 -2.828125q0 -1.625 -0.765625 -2.625q-0.765625 -1.015625 -2.046875 -1.015625q-1.25 0 -2.015625 1.0q-0.765625 0.984375 -0.765625 2.84375zm10.233643 4.8125l0 -8.546875l-1.5625 0l0 -1.3125l1.5625 0l0 -1.015625q0 -1.578125 0.84375 -2.4375q0.84375 -0.875 2.390625 -0.875q0.59375 0 1.15625 0.15625l-0.09375 1.375q-0.421875 -0.09375 -0.90625 -0.09375q-0.8125 0 -1.265625 0.484375q-0.4375 0.484375 -0.4375 1.375l0 1.03125l2.09375 0l0 1.3125l-2.09375 0l0 8.546875l-1.6875 0zm10.532837 0l0 -13.265625l4.328125 0q2.15625 0 3.25 0.890625q1.09375 0.890625 1.09375 2.640625q0 0.9375 -0.53125 1.65625q-0.53125 0.703125 -1.4375 1.09375q1.0625 0.3125 1.6875 1.15625q0.625 0.84375 0.625 2.0q0 1.78125 -1.15625 2.8125q-1.15625 1.015625 -3.265625 1.015625l-4.59375 0zm1.734375 -6.203125l0 4.765625l2.890625 0q1.21875 0 1.921875 -0.625q0.71875 -0.640625 0.71875 -1.75q0 -2.390625 -2.609375 -2.390625l-2.921875 0zm0 -1.40625l2.65625 0q1.140625 0 1.828125 -0.5625q0.6875 -0.578125 0.6875 -1.5625q0 -1.09375 -0.640625 -1.59375q-0.640625 -0.5 -1.9375 -0.5l-2.59375 0l0 4.21875zm8.505249 9.890625q1.84375 -0.59375 1.921875 -3.015625l0 -2.0q0 -2.109375 1.640625 -2.875q-1.640625 -0.734375 -1.640625 -2.859375l0 -1.859375q0 -2.5625 -1.90625 -3.171875l0.34375 -1.046875q1.609375 0.453125 2.421875 1.484375q0.8125 1.015625 0.8125 2.703125l0 1.921875q0 2.171875 1.9375 2.171875l0 1.3125q-1.9375 0 -1.9375 2.21875l0 1.84375q0 1.703125 -0.828125 2.734375q-0.8125 1.03125 -2.40625 1.484375l-0.359375 -1.046875z" fill-rule="nonzero"/><path fill="#000000" d="m465.61615 605.2203q-1.609375 -0.453125 -2.421875 -1.5q-0.8125 -1.03125 -0.8125 -2.75l0 -1.8125q0 -2.21875 -1.9375 -2.21875l0 -1.3125q1.9375 0 1.9375 -2.203125l0 -1.890625q0.015625 -1.671875 0.8125 -2.6875q0.796875 -1.03125 2.421875 -1.5l0.359375 1.046875q-1.90625 0.609375 -1.90625 3.171875l0 1.84375q0 2.078125 -1.53125 2.875q1.53125 0.828125 1.53125 2.90625l0 1.890625q0.03125 2.5 1.90625 3.09375l-0.359375 1.046875zm11.859741 -7.53125q-0.25 2.09375 -1.5625 3.25q-1.296875 1.140625 -3.46875 1.140625q-2.34375 0 -3.765625 -1.6875q-1.421875 -1.6875 -1.421875 -4.515625l0 -1.265625q0 -1.859375 0.65625 -3.25q0.671875 -1.40625 1.875 -2.15625q1.21875 -0.765625 2.8125 -0.765625q2.109375 0 3.390625 1.1875q1.28125 1.171875 1.484375 3.265625l-1.765625 0q-0.21875 -1.578125 -0.984375 -2.28125q-0.765625 -0.71875 -2.125 -0.71875q-1.671875 0 -2.625 1.234375q-0.953125 1.234375 -0.953125 3.53125l0 1.28125q0 2.15625 0.890625 3.4375q0.90625 1.265625 2.53125 1.265625q1.453125 0 2.234375 -0.65625q0.78125 -0.65625 1.03125 -2.296875l1.765625 0zm2.0648499 6.84375l-0.953125 -0.65625q0.859375 -1.1875 0.890625 -2.453125l0 -1.53125l1.65625 0l0 1.328125q0 0.921875 -0.453125 1.84375q-0.453125 0.921875 -1.140625 1.46875zm10.343018 -7.828125l0 5.1875l-1.734375 0l0 -13.265625l4.890625 0q2.171875 0 3.40625 1.109375q1.234375 1.109375 1.234375 2.953125q0 1.921875 -1.21875 2.96875q-1.203125 1.046875 -3.453125 1.046875l-3.125 0zm0 -1.4375l3.15625 0q1.390625 0 2.140625 -0.65625q0.75 -0.65625 0.75 -1.90625q0 -1.1875 -0.75 -1.890625q-0.75 -0.71875 -2.046875 -0.75l-3.25 0l0 5.203125zm14.535095 -1.71875q-0.390625 -0.0625 -0.84375 -0.0625q-1.65625 0 -2.25 1.40625l0 7.0l-1.671875 0l0 -9.859375l1.640625 0l0.015625 1.140625q0.828125 -1.3125 2.359375 -1.3125q0.484375 0 0.75 0.125l0 1.5625zm0.9118347 3.328125q0 -1.453125 0.5625 -2.609375q0.578125 -1.15625 1.59375 -1.78125q1.015625 -0.625 2.3125 -0.625q2.015625 0 3.25 1.390625q1.25 1.390625 1.25 3.703125l0 0.125q0 1.4375 -0.546875 2.578125q-0.546875 1.140625 -1.578125 1.78125q-1.015625 0.640625 -2.359375 0.640625q-2.0 0 -3.25 -1.390625q-1.234375 -1.40625 -1.234375 -3.703125l0 -0.109375zm1.6875 0.203125q0 1.640625 0.765625 2.640625q0.765625 0.984375 2.03125 0.984375q1.296875 0 2.046875 -1.0q0.75 -1.015625 0.75 -2.828125q0 -1.625 -0.765625 -2.625q-0.765625 -1.015625 -2.046875 -1.015625q-1.25 0 -2.015625 1.0q-0.765625 0.984375 -0.765625 2.84375zm8.952393 -0.203125q0 -1.453125 0.5625 -2.609375q0.578125 -1.15625 1.59375 -1.78125q1.015625 -0.625 2.3125 -0.625q2.015625 0 3.25 1.390625q1.25 1.390625 1.25 3.703125l0 0.125q0 1.4375 -0.546875 2.578125q-0.546875 1.140625 -1.578125 1.78125q-1.015625 0.640625 -2.359375 0.640625q-2.0 0 -3.25 -1.390625q-1.234375 -1.40625 -1.234375 -3.703125l0 -0.109375zm1.6875 0.203125q0 1.640625 0.765625 2.640625q0.765625 0.984375 2.03125 0.984375q1.296875 0 2.046875 -1.0q0.75 -1.015625 0.75 -2.828125q0 -1.625 -0.765625 -2.625q-0.765625 -1.015625 -2.046875 -1.015625q-1.25 0 -2.015625 1.0q-0.765625 0.984375 -0.765625 2.84375zm10.233643 4.8125l0 -8.546875l-1.5625 0l0 -1.3125l1.5625 0l0 -1.015625q0 -1.578125 0.84375 -2.4375q0.84375 -0.875 2.390625 -0.875q0.59375 0 1.15625 0.15625l-0.09375 1.375q-0.421875 -0.09375 -0.90625 -0.09375q-0.8125 0 -1.265625 0.484375q-0.4375 0.484375 -0.4375 1.375l0 1.03125l2.09375 0l0 1.3125l-2.09375 0l0 8.546875l-1.6875 0zm20.282898 -4.203125q-0.25 2.09375 -1.5625 3.25q-1.296875 1.140625 -3.46875 1.140625q-2.34375 0 -3.765625 -1.6875q-1.421875 -1.6875 -1.421875 -4.515625l0 -1.265625q0 -1.859375 0.65625 -3.25q0.671875 -1.40625 1.875 -2.15625q1.21875 -0.765625 2.8125 -0.765625q2.109375 0 3.390625 1.1875q1.28125 1.171875 1.484375 3.265625l-1.765625 0q-0.21875 -1.578125 -0.984375 -2.28125q-0.765625 -0.71875 -2.125 -0.71875q-1.671875 0 -2.625 1.234375q-0.953125 1.234375 -0.953125 3.53125l0 1.28125q0 2.15625 0.890625 3.4375q0.90625 1.265625 2.53125 1.265625q1.453125 0 2.234375 -0.65625q0.78125 -0.65625 1.03125 -2.296875l1.765625 0zm0.8629761 6.484375q1.84375 -0.59375 1.921875 -3.015625l0 -2.0q0 -2.109375 1.640625 -2.875q-1.640625 -0.734375 -1.640625 -2.859375l0 -1.859375q0 -2.5625 -1.90625 -3.171875l0.34375 -1.046875q1.609375 0.453125 2.421875 1.484375q0.8125 1.015625 0.8125 2.703125l0 1.921875q0 2.171875 1.9375 2.171875l0 1.3125q-1.9375 0 -1.9375 2.21875l0 1.84375q0 1.703125 -0.828125 2.734375q-0.8125 1.03125 -2.40625 1.484375l-0.359375 -1.046875z" fill-rule="nonzero"/></g></svg>